<?xml version="1.0" encoding="utf-8"?>
<!-- Generator: Adobe Illustrator 22.0.1, SVG Export Plug-In . SVG Version: 6.00 Build 0)  -->
<svg version="1.1" id="Layer_1" xmlns="http://www.w3.org/2000/svg" xmlns:xlink="http://www.w3.org/1999/xlink" x="0px" y="0px"
	 viewBox="0 0 82.3 82.3" style="enable-background:new 0 0 82.3 82.3;" xml:space="preserve">
<style type="text/css">
	.st0{fill:#FFFFFF;}
</style>
<path class="st0" d="M50.4,41.1L70,21.5c2.5-2.5,2.5-6.7,0-9.2s-6.7-2.5-9.2,0L41.2,31.9L21.5,12.3c-2.5-2.5-6.7-2.5-9.2,0
	s-2.5,6.7,0,9.2L32,41.1L12.3,60.8c-2.5,2.5-2.5,6.7,0,9.2s6.7,2.5,9.2,0l19.7-19.7L60.8,70c2.5,2.5,6.7,2.5,9.2,0s2.5-6.7,0-9.2
	L50.4,41.1z"/>
</svg>
